<svg width="35" height="38" viewBox="0 0 35 38" fill="none" xmlns="http://www.w3.org/2000/svg">
<path d="M10.2475 11.14C9.80883 11.14 9.45416 11.0537 9.18349 10.881C8.91283 10.7083 8.71449 10.489 8.58849 10.223C8.46249 9.95233 8.39949 9.67 8.39949 9.376V5.316H7.33549L7.47549 4.049H8.39949V2.453L9.96049 2.292V4.049H11.5985V5.316H9.96049V8.641C9.96049 9.02833 9.98383 9.30833 10.0305 9.481C10.0772 9.649 10.1845 9.75633 10.3525 9.803C10.5205 9.845 10.7912 9.866 11.1645 9.866H11.5845L11.4515 11.14H10.2475ZM12.7016 11V0.499999H14.2696V5.134L13.8566 4.931C14.16 4.651 14.489 4.41533 14.8436 4.224C15.1983 4.028 15.6346 3.93 16.1526 3.93C16.7593 3.93 17.2586 4.06533 17.6506 4.336C18.0426 4.60667 18.332 4.98233 18.5186 5.463C18.7053 5.94367 18.7986 6.50133 18.7986 7.136V11H17.2376V7.269C17.2376 6.57833 17.1186 6.06967 16.8806 5.743C16.6473 5.41167 16.2763 5.246 15.7676 5.246C15.3523 5.246 15 5.34867 14.7106 5.554C14.426 5.75933 14.1856 6.03467 13.9896 6.38L14.2696 5.505V11H12.7016ZM23.7316 11.14C22.9009 11.14 22.2056 10.972 21.6456 10.636C21.0902 10.3 20.6702 9.85667 20.3856 9.306C20.1056 8.75067 19.9656 8.14167 19.9656 7.479C19.9656 6.83967 20.0962 6.25167 20.3576 5.715C20.6236 5.17367 21.0086 4.742 21.5126 4.42C22.0212 4.09333 22.6372 3.93 23.3606 3.93C23.9952 3.93 24.5366 4.05833 24.9846 4.315C25.4326 4.57167 25.7732 4.92633 26.0066 5.379C26.2446 5.827 26.3636 6.34033 26.3636 6.919C26.3636 7.04967 26.3542 7.18733 26.3356 7.332C26.3216 7.472 26.3006 7.61667 26.2726 7.766H21.5826C21.6479 8.27467 21.7902 8.67833 22.0096 8.977C22.2289 9.27567 22.5019 9.49267 22.8286 9.628C23.1552 9.75867 23.5076 9.824 23.8856 9.824C24.2589 9.824 24.6182 9.77967 24.9636 9.691C25.3136 9.59767 25.6379 9.47167 25.9366 9.313L26.0556 10.608C25.7896 10.7387 25.4606 10.86 25.0686 10.972C24.6766 11.084 24.2309 11.14 23.7316 11.14ZM21.6526 6.702H24.7676C24.7676 6.45 24.7186 6.21433 24.6206 5.995C24.5272 5.771 24.3756 5.59133 24.1656 5.456C23.9602 5.316 23.6896 5.246 23.3536 5.246C22.8636 5.246 22.4809 5.379 22.2056 5.645C21.9349 5.911 21.7506 6.26333 21.6526 6.702ZM0.0887423 24V14.2H1.88074V24H0.0887423ZM3.65087 24V17H5.27487L5.34487 18.302L4.93887 17.77C5.20487 17.546 5.5222 17.343 5.89087 17.161C6.25953 16.979 6.68887 16.888 7.17887 16.888C8.07487 16.888 8.73987 17.1867 9.17387 17.784C9.60787 18.3767 9.82487 19.1467 9.82487 20.094V24H8.08887V20.234C8.08887 19.5807 7.9792 19.0977 7.75987 18.785C7.5452 18.4723 7.19287 18.316 6.70287 18.316C6.3062 18.316 5.98187 18.414 5.72987 18.61C5.47787 18.8013 5.2562 19.058 5.06487 19.38L5.38687 18.526V24H3.65087ZM13.5754 24.14C13.1368 24.14 12.7798 24.0513 12.5044 23.874C12.2291 23.692 12.0261 23.461 11.8954 23.181C11.7648 22.901 11.6994 22.6093 11.6994 22.306V18.428H10.7054L10.8594 17H11.6994V15.46L13.4354 15.278V17H14.9754V18.428H13.4354V21.592C13.4354 21.9467 13.4564 22.2033 13.4984 22.362C13.5404 22.516 13.6361 22.614 13.7854 22.656C13.9348 22.6933 14.1728 22.712 14.4994 22.712H14.9754L14.8214 24.14H13.5754ZM19.4799 24.14C18.6353 24.14 17.9306 23.972 17.3659 23.636C16.8059 23.2953 16.3859 22.8473 16.1059 22.292C15.8259 21.732 15.6859 21.1207 15.6859 20.458C15.6859 19.8187 15.8166 19.2283 16.0779 18.687C16.3439 18.1457 16.7313 17.7117 17.2399 17.385C17.7486 17.0537 18.3693 16.888 19.1019 16.888C19.7739 16.888 20.3339 17.0257 20.7819 17.301C21.2299 17.5763 21.5659 17.945 21.7899 18.407C22.0139 18.8643 22.1259 19.3707 22.1259 19.926C22.1259 20.08 22.1166 20.2363 22.0979 20.395C22.0793 20.549 22.0513 20.71 22.0139 20.878H17.4919C17.5573 21.312 17.6926 21.6643 17.8979 21.935C18.1079 22.201 18.3623 22.397 18.6609 22.523C18.9643 22.649 19.2886 22.712 19.6339 22.712C20.0399 22.712 20.4179 22.6607 20.7679 22.558C21.1179 22.4507 21.4399 22.3107 21.7339 22.138L21.8179 23.608C21.5519 23.748 21.2206 23.8717 20.8239 23.979C20.4273 24.0863 19.9793 24.14 19.4799 24.14ZM17.5339 19.702H20.3619C20.3619 19.492 20.3223 19.282 20.2429 19.072C20.1636 18.8573 20.0306 18.6777 19.8439 18.533C19.6619 18.3883 19.4146 18.316 19.1019 18.316C18.6539 18.316 18.3016 18.4467 18.0449 18.708C17.7883 18.9693 17.6179 19.3007 17.5339 19.702ZM23.311 24V17H24.935L24.977 17.742C25.1544 17.546 25.404 17.35 25.726 17.154C26.048 16.958 26.4004 16.86 26.783 16.86C26.895 16.86 26.9977 16.8693 27.091 16.888L26.965 18.596C26.8624 18.568 26.7597 18.5493 26.657 18.54C26.559 18.5307 26.461 18.526 26.363 18.526C26.069 18.526 25.8007 18.5937 25.558 18.729C25.3154 18.8643 25.145 19.03 25.047 19.226V24H23.311ZM27.9321 24V17H29.5561L29.6261 18.302L29.2201 17.77C29.4861 17.546 29.8035 17.343 30.1721 17.161C30.5408 16.979 30.9701 16.888 31.4601 16.888C32.3561 16.888 33.0211 17.1867 33.4551 17.784C33.8891 18.3767 34.1061 19.1467 34.1061 20.094V24H32.3701V20.234C32.3701 19.5807 32.2605 19.0977 32.0411 18.785C31.8265 18.4723 31.4741 18.316 30.9841 18.316C30.5875 18.316 30.2631 18.414 30.0111 18.61C29.7591 18.8013 29.5375 19.058 29.3461 19.38L29.6681 18.526V24H27.9321ZM3.56173 37V27.2H6.95673C7.67539 27.2 8.28906 27.3097 8.79773 27.529C9.31106 27.7483 9.70306 28.0913 9.97373 28.558C10.2444 29.0247 10.3797 29.629 10.3797 30.371C10.3797 31.113 10.2444 31.722 9.97373 32.198C9.70773 32.6693 9.32039 33.0193 8.81173 33.248C8.30306 33.4767 7.69406 33.591 6.98473 33.591H5.21373V37H3.56173ZM5.21373 32.205H6.78173C7.43039 32.205 7.91573 32.058 8.23773 31.764C8.56439 31.47 8.72773 31.0127 8.72773 30.392C8.72773 29.7713 8.56673 29.3163 8.24473 29.027C7.92273 28.733 7.42573 28.586 6.75373 28.586H5.21373V32.205ZM13.2428 37.14C12.8182 37.14 12.4728 37.0583 12.2068 36.895C11.9455 36.7317 11.7542 36.517 11.6328 36.251C11.5115 35.9803 11.4508 35.6863 11.4508 35.369V26.5H13.0188V34.655C13.0188 35.033 13.0422 35.3083 13.0888 35.481C13.1355 35.649 13.2242 35.7563 13.3548 35.803C13.4902 35.845 13.6908 35.866 13.9568 35.866L13.7888 37.14H13.2428ZM16.5459 37.14C16.1539 37.14 15.8015 37.056 15.4889 36.888C15.1762 36.72 14.9289 36.482 14.7469 36.174C14.5695 35.866 14.4809 35.502 14.4809 35.082C14.4809 34.69 14.5695 34.354 14.7469 34.074C14.9289 33.7893 15.1669 33.5537 15.4609 33.367C15.7595 33.1803 16.0839 33.0333 16.4339 32.926C16.7885 32.814 17.1432 32.7323 17.4979 32.681C17.8572 32.6297 18.1839 32.6017 18.4779 32.597C18.4639 32.1023 18.3495 31.7617 18.1349 31.575C17.9249 31.3837 17.5912 31.288 17.1339 31.288C16.8399 31.288 16.5459 31.33 16.2519 31.414C15.9579 31.498 15.6242 31.645 15.2509 31.855L15.0899 30.581C15.4585 30.3757 15.8505 30.217 16.2659 30.105C16.6859 29.9883 17.1152 29.93 17.5539 29.93C18.0999 29.93 18.5572 30.0257 18.9259 30.217C19.2945 30.4083 19.5722 30.7233 19.7589 31.162C19.9502 31.6007 20.0459 32.1863 20.0459 32.919V34.627C20.0459 34.9677 20.0622 35.2267 20.0949 35.404C20.1275 35.5813 20.1905 35.7027 20.2839 35.768C20.3819 35.8333 20.5289 35.866 20.7249 35.866H20.9139L20.7459 37.14H20.3119C19.9945 37.14 19.7309 37.1027 19.5209 37.028C19.3109 36.958 19.1382 36.8577 19.0029 36.727C18.8722 36.5963 18.7602 36.44 18.6669 36.258C18.4289 36.5287 18.1209 36.7433 17.7429 36.902C17.3695 37.0607 16.9705 37.14 16.5459 37.14ZM17.0919 35.929C17.3112 35.929 17.5515 35.873 17.8129 35.761C18.0742 35.6443 18.2982 35.481 18.4849 35.271V33.661C18.0369 33.675 17.6332 33.7333 17.2739 33.836C16.9145 33.934 16.6299 34.081 16.4199 34.277C16.2145 34.4683 16.1119 34.7133 16.1119 35.012C16.1119 35.3247 16.1935 35.5557 16.3569 35.705C16.5249 35.8543 16.7699 35.929 17.0919 35.929ZM25.0888 37.14C24.2955 37.14 23.6305 36.979 23.0938 36.657C22.5571 36.3303 22.1511 35.8963 21.8758 35.355C21.6051 34.809 21.4698 34.207 21.4698 33.549C21.4698 32.877 21.6028 32.2657 21.8688 31.715C22.1395 31.1643 22.5478 30.7257 23.0938 30.399C23.6398 30.0723 24.3281 29.909 25.1588 29.909C25.5415 29.909 25.8915 29.951 26.2088 30.035C26.5261 30.1143 26.8015 30.217 27.0348 30.343L26.8738 31.638C26.6451 31.5213 26.3931 31.428 26.1178 31.358C25.8425 31.2833 25.5555 31.246 25.2568 31.246C24.5568 31.246 24.0155 31.4537 23.6328 31.869C23.2548 32.2797 23.0658 32.8327 23.0658 33.528C23.0658 34.1953 23.2548 34.746 23.6328 35.18C24.0108 35.614 24.5451 35.831 25.2358 35.831C25.5298 35.831 25.8145 35.7913 26.0898 35.712C26.3651 35.6327 26.6311 35.523 26.8878 35.383L27.0488 36.685C26.8248 36.811 26.5378 36.9183 26.1878 37.007C25.8425 37.0957 25.4761 37.14 25.0888 37.14ZM31.5109 37.14C30.6802 37.14 29.9849 36.972 29.4249 36.636C28.8695 36.3 28.4495 35.8567 28.1649 35.306C27.8849 34.7507 27.7449 34.1417 27.7449 33.479C27.7449 32.8397 27.8755 32.2517 28.1369 31.715C28.4029 31.1737 28.7879 30.742 29.2919 30.42C29.8005 30.0933 30.4165 29.93 31.1399 29.93C31.7745 29.93 32.3159 30.0583 32.7639 30.315C33.2119 30.5717 33.5525 30.9263 33.7859 31.379C34.0239 31.827 34.1429 32.3403 34.1429 32.919C34.1429 33.0497 34.1335 33.1873 34.1149 33.332C34.1009 33.472 34.0799 33.6167 34.0519 33.766H29.3619C29.4272 34.2747 29.5695 34.6783 29.7889 34.977C30.0082 35.2757 30.2812 35.4927 30.6079 35.628C30.9345 35.7587 31.2869 35.824 31.6649 35.824C32.0382 35.824 32.3975 35.7797 32.7429 35.691C33.0929 35.5977 33.4172 35.4717 33.7159 35.313L33.8349 36.608C33.5689 36.7387 33.2399 36.86 32.8479 36.972C32.4559 37.084 32.0102 37.14 31.5109 37.14ZM29.4319 32.702H32.5469C32.5469 32.45 32.4979 32.2143 32.3999 31.995C32.3065 31.771 32.1549 31.5913 31.9449 31.456C31.7395 31.316 31.4689 31.246 31.1329 31.246C30.6429 31.246 30.2602 31.379 29.9849 31.645C29.7142 31.911 29.5299 32.2633 29.4319 32.702Z" fill="white"/>
</svg>
